# xmcd CD database file
#
# Track frame offsets:
#	150
#	35037
#	50210
#	74877
#	95507
#	113357
#	126565
#	143870
#	159337
#	184287
#	211587
#	228982
#
# Disc length: 3225 seconds
#
# Revision: 0
# Processed by: cddbd v1.5.1PL0 Copyright (c) Steve Scherf et al.
# Submitted via: CDex 1.51
#
DISCID=b30c970c
DTITLE=Peter Green - A Blues Collection
DYEAR=1999
DGENRE=Blues
TTITLE0=A Fool No More
TTITLE1=Momma Don't Cha Cry
TTITLE2=One Woman Love
TTITLE3=Tribal Dance
TTITLE4=Black Woman
TTITLE5=Born Under A Bad Sign
TTITLE6=Walking The Road
TTITLE7=What Am I Doing Here
TTITLE8=Last Train To San Antone
TTITLE9=Just Another Guy
TTITLE10=In The Skies
TTITLE11=Bandit
EXTD=YEAR: 1999
EXTT0=
EXTT1=
EXTT2=
EXTT3=
EXTT4=
EXTT5=
EXTT6=
EXTT7=
EXTT8=
EXTT9=
EXTT10=
EXTT11=
PLAYORDER=
